<mxfile host="Electron" modified="2024-08-27T22:00:53.000Z" agent="Mozilla/5.0 (Windows NT 10.0; Win64; x64) AppleWebKit/537.36 (KHTML, like Gecko) draw.io/24.4.8 Chrome/124.0.6367.207 Electron/30.0.6 Safari/537.36" etag="mRhsdso65TP9clzsZr3D" version="24.4.8" type="device">
  <diagram name="Page-1" id="O6bcs-abmlyXL-6Mab-k">
    <mxGraphModel dx="2029" dy="1243" grid="1" gridSize="10" guides="1" tooltips="1" connect="1" arrows="1" fold="1" page="1" pageScale="1" pageWidth="2336" pageHeight="1654" math="0" shadow="0">
      <root>
        <mxCell id="0" />
        <mxCell id="1" parent="0" />
        <mxCell id="UJFcI3xOjRwTeI_TndEH-33" style="edgeStyle=orthogonalEdgeStyle;rounded=0;orthogonalLoop=1;jettySize=auto;html=1;entryX=0.5;entryY=0;entryDx=0;entryDy=0;exitX=0;exitY=0.5;exitDx=0;exitDy=0;" parent="1" source="SXCyoP0QDoGg-8MIkyOE-16" target="SXCyoP0QDoGg-8MIkyOE-84" edge="1">
          <mxGeometry relative="1" as="geometry">
            <mxPoint x="400.7999999999997" y="1129.8400000000001" as="sourcePoint" />
            <Array as="points">
              <mxPoint x="180" y="710" />
              <mxPoint x="180" y="460" />
              <mxPoint x="340" y="460" />
            </Array>
          </mxGeometry>
        </mxCell>
        <mxCell id="SXCyoP0QDoGg-8MIkyOE-23" style="edgeStyle=orthogonalEdgeStyle;rounded=0;orthogonalLoop=1;jettySize=auto;html=1;fontFamily=Consolas;" parent="1" source="SXCyoP0QDoGg-8MIkyOE-1" target="SXCyoP0QDoGg-8MIkyOE-22" edge="1">
          <mxGeometry relative="1" as="geometry" />
        </mxCell>
        <mxCell id="SXCyoP0QDoGg-8MIkyOE-1" value="&lt;font style=&quot;font-size: 19px;&quot;&gt;Boot&lt;/font&gt;" style="rounded=1;whiteSpace=wrap;html=1;fillColor=#000000;fontFamily=Consolas;glass=0;fillStyle=hatch;labelBackgroundColor=default;labelBorderColor=none;fontColor=default;fontSize=19;" parent="1" vertex="1">
          <mxGeometry x="280" y="200" width="120" height="60" as="geometry" />
        </mxCell>
        <mxCell id="SXCyoP0QDoGg-8MIkyOE-37" style="edgeStyle=orthogonalEdgeStyle;rounded=0;orthogonalLoop=1;jettySize=auto;html=1;entryX=0.5;entryY=0;entryDx=0;entryDy=0;fontFamily=Consolas;" parent="1" source="SXCyoP0QDoGg-8MIkyOE-6" target="SXCyoP0QDoGg-8MIkyOE-84" edge="1">
          <mxGeometry relative="1" as="geometry">
            <Array as="points" />
          </mxGeometry>
        </mxCell>
        <mxCell id="SXCyoP0QDoGg-8MIkyOE-6" value="Schrack logo" style="rounded=1;whiteSpace=wrap;html=1;fontFamily=Consolas;strokeColor=default;align=center;verticalAlign=middle;fontSize=19;fontColor=default;fillColor=none;fillStyle=auto;gradientColor=none;gradientDirection=south;" parent="1" vertex="1">
          <mxGeometry x="280" y="360" width="120" height="60" as="geometry" />
        </mxCell>
        <mxCell id="UJFcI3xOjRwTeI_TndEH-34" style="edgeStyle=orthogonalEdgeStyle;rounded=0;orthogonalLoop=1;jettySize=auto;html=1;entryX=0.5;entryY=0;entryDx=0;entryDy=0;" parent="1" source="SXCyoP0QDoGg-8MIkyOE-9" target="UJFcI3xOjRwTeI_TndEH-24" edge="1">
          <mxGeometry relative="1" as="geometry">
            <Array as="points">
              <mxPoint x="1180.06" y="1070" />
              <mxPoint x="1180.06" y="1070" />
            </Array>
          </mxGeometry>
        </mxCell>
        <mxCell id="UJFcI3xOjRwTeI_TndEH-57" style="edgeStyle=orthogonalEdgeStyle;rounded=0;orthogonalLoop=1;jettySize=auto;html=1;entryX=0;entryY=0.5;entryDx=0;entryDy=0;" parent="1" source="SXCyoP0QDoGg-8MIkyOE-9" target="SXCyoP0QDoGg-8MIkyOE-87" edge="1">
          <mxGeometry relative="1" as="geometry">
            <Array as="points">
              <mxPoint x="1030" y="1030" />
              <mxPoint x="1030" y="870" />
            </Array>
          </mxGeometry>
        </mxCell>
        <mxCell id="UJFcI3xOjRwTeI_TndEH-61" style="edgeStyle=orthogonalEdgeStyle;rounded=0;orthogonalLoop=1;jettySize=auto;html=1;entryX=0.5;entryY=0;entryDx=0;entryDy=0;" parent="1" source="SXCyoP0QDoGg-8MIkyOE-9" target="UJFcI3xOjRwTeI_TndEH-60" edge="1">
          <mxGeometry relative="1" as="geometry">
            <Array as="points">
              <mxPoint x="1030" y="1030" />
              <mxPoint x="1030" y="1220" />
              <mxPoint x="660" y="1220" />
              <mxPoint x="660" y="1000" />
              <mxPoint x="340" y="1000" />
            </Array>
          </mxGeometry>
        </mxCell>
        <mxCell id="UJFcI3xOjRwTeI_TndEH-65" style="edgeStyle=orthogonalEdgeStyle;rounded=0;orthogonalLoop=1;jettySize=auto;html=1;" parent="1" source="SXCyoP0QDoGg-8MIkyOE-9" edge="1">
          <mxGeometry relative="1" as="geometry">
            <mxPoint x="1030" y="1080" as="targetPoint" />
          </mxGeometry>
        </mxCell>
        <mxCell id="UJFcI3xOjRwTeI_TndEH-66" style="edgeStyle=orthogonalEdgeStyle;rounded=0;orthogonalLoop=1;jettySize=auto;html=1;" parent="1" source="SXCyoP0QDoGg-8MIkyOE-9" edge="1">
          <mxGeometry relative="1" as="geometry">
            <mxPoint x="1030" y="980" as="targetPoint" />
          </mxGeometry>
        </mxCell>
        <mxCell id="UJFcI3xOjRwTeI_TndEH-67" style="edgeStyle=orthogonalEdgeStyle;rounded=0;orthogonalLoop=1;jettySize=auto;html=1;" parent="1" source="SXCyoP0QDoGg-8MIkyOE-9" edge="1">
          <mxGeometry relative="1" as="geometry">
            <mxPoint x="980" y="1220" as="targetPoint" />
            <Array as="points">
              <mxPoint x="1030" y="1030" />
              <mxPoint x="1030" y="1220" />
            </Array>
          </mxGeometry>
        </mxCell>
        <mxCell id="SXCyoP0QDoGg-8MIkyOE-9" value="&lt;p style=&quot;line-height: 100%; font-size: 19px;&quot;&gt;(Predefined countdown)&lt;/p&gt;" style="rounded=1;whiteSpace=wrap;html=1;fontFamily=Consolas;fillStyle=auto;strokeColor=default;align=center;verticalAlign=middle;fontSize=19;fontColor=default;fillColor=none;gradientColor=none;gradientDirection=south;" parent="1" vertex="1">
          <mxGeometry x="1120.06" y="1000" width="120" height="60" as="geometry" />
        </mxCell>
        <mxCell id="UJFcI3xOjRwTeI_TndEH-79" style="edgeStyle=orthogonalEdgeStyle;rounded=0;orthogonalLoop=1;jettySize=auto;html=1;" parent="1" source="SXCyoP0QDoGg-8MIkyOE-16" edge="1">
          <mxGeometry relative="1" as="geometry">
            <mxPoint x="320" y="460" as="targetPoint" />
            <Array as="points">
              <mxPoint x="180" y="710" />
              <mxPoint x="180" y="460" />
            </Array>
          </mxGeometry>
        </mxCell>
        <mxCell id="SXCyoP0QDoGg-8MIkyOE-16" value="(Texty)" style="rounded=1;whiteSpace=wrap;html=1;fontFamily=Consolas;strokeColor=default;align=center;verticalAlign=middle;fontSize=19;fontColor=default;fillColor=none;fillStyle=auto;gradientColor=none;gradientDirection=south;" parent="1" vertex="1">
          <mxGeometry x="280.0899999999999" y="680" width="120" height="60" as="geometry" />
        </mxCell>
        <mxCell id="UJFcI3xOjRwTeI_TndEH-2" style="edgeStyle=orthogonalEdgeStyle;rounded=0;orthogonalLoop=1;jettySize=auto;html=1;entryX=0;entryY=0.5;entryDx=0;entryDy=0;" parent="1" source="SXCyoP0QDoGg-8MIkyOE-17" target="SXCyoP0QDoGg-8MIkyOE-19" edge="1">
          <mxGeometry relative="1" as="geometry" />
        </mxCell>
        <mxCell id="SXCyoP0QDoGg-8MIkyOE-17" value="&lt;div style=&quot;font-size: 19px;&quot;&gt;Schrack Technic&lt;/div&gt;" style="rounded=1;whiteSpace=wrap;html=1;fontFamily=Consolas;strokeColor=default;align=center;verticalAlign=middle;fontSize=19;fontColor=default;fillColor=none;fillStyle=auto;gradientColor=none;gradientDirection=south;" parent="1" vertex="1">
          <mxGeometry x="280" y="800" width="120" height="60" as="geometry" />
        </mxCell>
        <mxCell id="UJFcI3xOjRwTeI_TndEH-3" style="edgeStyle=orthogonalEdgeStyle;rounded=0;orthogonalLoop=1;jettySize=auto;html=1;entryX=0;entryY=0.5;entryDx=0;entryDy=0;" parent="1" source="SXCyoP0QDoGg-8MIkyOE-19" target="SXCyoP0QDoGg-8MIkyOE-20" edge="1">
          <mxGeometry relative="1" as="geometry" />
        </mxCell>
        <mxCell id="SXCyoP0QDoGg-8MIkyOE-19" value="Get Ready, Get Schrack" style="rounded=1;whiteSpace=wrap;html=1;fontFamily=Consolas;strokeColor=default;align=center;verticalAlign=middle;fontSize=19;fontColor=default;fillColor=none;fillStyle=auto;gradientColor=none;gradientDirection=south;" parent="1" vertex="1">
          <mxGeometry x="440.05999999999995" y="800" width="120" height="60" as="geometry" />
        </mxCell>
        <mxCell id="UJFcI3xOjRwTeI_TndEH-4" style="edgeStyle=orthogonalEdgeStyle;rounded=0;orthogonalLoop=1;jettySize=auto;html=1;entryX=0;entryY=0.5;entryDx=0;entryDy=0;" parent="1" source="SXCyoP0QDoGg-8MIkyOE-20" target="SXCyoP0QDoGg-8MIkyOE-21" edge="1">
          <mxGeometry relative="1" as="geometry">
            <mxPoint x="360" y="1040" as="targetPoint" />
          </mxGeometry>
        </mxCell>
        <mxCell id="SXCyoP0QDoGg-8MIkyOE-20" value="&lt;div style=&quot;font-size: 19px;&quot;&gt;&lt;span style=&quot;background-color: initial; font-size: 19px;&quot;&gt;Schrack for Students&lt;/span&gt;&lt;/div&gt;" style="rounded=1;whiteSpace=wrap;html=1;fontFamily=Consolas;strokeColor=default;align=center;verticalAlign=middle;fontSize=19;fontColor=default;fillColor=none;fillStyle=auto;gradientColor=none;gradientDirection=south;" parent="1" vertex="1">
          <mxGeometry x="600.06" y="800" width="120" height="60" as="geometry" />
        </mxCell>
        <mxCell id="UJFcI3xOjRwTeI_TndEH-6" style="edgeStyle=orthogonalEdgeStyle;rounded=0;orthogonalLoop=1;jettySize=auto;html=1;entryX=0;entryY=0.5;entryDx=0;entryDy=0;" parent="1" source="SXCyoP0QDoGg-8MIkyOE-21" target="UJFcI3xOjRwTeI_TndEH-5" edge="1">
          <mxGeometry relative="1" as="geometry">
            <mxPoint x="920.0599999999997" y="830" as="targetPoint" />
          </mxGeometry>
        </mxCell>
        <mxCell id="SXCyoP0QDoGg-8MIkyOE-21" value="&lt;div style=&quot;font-size: 19px;&quot;&gt;&lt;span style=&quot;background-color: initial; font-size: 19px;&quot;&gt;ARODEM&lt;/span&gt;&lt;br style=&quot;font-size: 19px;&quot;&gt;&lt;/div&gt;" style="rounded=1;whiteSpace=wrap;html=1;fontFamily=Consolas;strokeColor=default;align=center;verticalAlign=middle;fontSize=19;fontColor=default;fillColor=none;fillStyle=auto;gradientColor=none;gradientDirection=south;" parent="1" vertex="1">
          <mxGeometry x="760.06" y="800" width="120" height="60" as="geometry" />
        </mxCell>
        <mxCell id="SXCyoP0QDoGg-8MIkyOE-24" style="edgeStyle=orthogonalEdgeStyle;rounded=0;orthogonalLoop=1;jettySize=auto;html=1;entryX=0.5;entryY=0;entryDx=0;entryDy=0;fontFamily=Consolas;" parent="1" source="SXCyoP0QDoGg-8MIkyOE-22" target="SXCyoP0QDoGg-8MIkyOE-6" edge="1">
          <mxGeometry relative="1" as="geometry" />
        </mxCell>
        <mxCell id="SXCyoP0QDoGg-8MIkyOE-22" value="Boot-Up animace" style="rounded=1;whiteSpace=wrap;html=1;fontFamily=Consolas;fillColor=none;fillStyle=auto;strokeColor=default;align=center;verticalAlign=middle;fontSize=19;fontColor=default;gradientColor=none;gradientDirection=south;" parent="1" vertex="1">
          <mxGeometry x="280" y="280" width="120" height="60" as="geometry" />
        </mxCell>
        <mxCell id="SXCyoP0QDoGg-8MIkyOE-85" style="edgeStyle=orthogonalEdgeStyle;rounded=0;orthogonalLoop=1;jettySize=auto;html=1;entryX=0.5;entryY=0;entryDx=0;entryDy=0;fontFamily=Consolas;" parent="1" source="SXCyoP0QDoGg-8MIkyOE-84" target="SXCyoP0QDoGg-8MIkyOE-16" edge="1">
          <mxGeometry relative="1" as="geometry">
            <mxPoint x="1100.06" y="760" as="targetPoint" />
            <Array as="points">
              <mxPoint x="340.05999999999995" y="630" />
              <mxPoint x="340.05999999999995" y="630" />
            </Array>
          </mxGeometry>
        </mxCell>
        <mxCell id="SXCyoP0QDoGg-8MIkyOE-90" style="edgeStyle=orthogonalEdgeStyle;rounded=0;orthogonalLoop=1;jettySize=auto;html=1;entryX=0.5;entryY=0;entryDx=0;entryDy=0;fontFamily=Consolas;" parent="1" source="SXCyoP0QDoGg-8MIkyOE-84" target="SXCyoP0QDoGg-8MIkyOE-87" edge="1">
          <mxGeometry relative="1" as="geometry">
            <Array as="points">
              <mxPoint x="340.05999999999995" y="620" />
              <mxPoint x="1180.06" y="620" />
            </Array>
          </mxGeometry>
        </mxCell>
        <mxCell id="UJFcI3xOjRwTeI_TndEH-76" style="edgeStyle=orthogonalEdgeStyle;rounded=0;orthogonalLoop=1;jettySize=auto;html=1;" parent="1" source="SXCyoP0QDoGg-8MIkyOE-84" edge="1">
          <mxGeometry relative="1" as="geometry">
            <mxPoint x="380.0599999999997" y="620" as="targetPoint" />
            <Array as="points">
              <mxPoint x="340.05999999999995" y="620" />
            </Array>
          </mxGeometry>
        </mxCell>
        <mxCell id="SXCyoP0QDoGg-8MIkyOE-84" value="Menu" style="rounded=1;whiteSpace=wrap;html=1;fontFamily=Consolas;strokeColor=default;align=center;verticalAlign=middle;fontSize=19;fontColor=default;fillColor=none;fillStyle=auto;gradientColor=none;gradientDirection=south;" parent="1" vertex="1">
          <mxGeometry x="280" y="520" width="120" height="60" as="geometry" />
        </mxCell>
        <mxCell id="UJFcI3xOjRwTeI_TndEH-15" style="edgeStyle=orthogonalEdgeStyle;rounded=0;orthogonalLoop=1;jettySize=auto;html=1;entryX=0.5;entryY=0;entryDx=0;entryDy=0;" parent="1" source="SXCyoP0QDoGg-8MIkyOE-87" target="SXCyoP0QDoGg-8MIkyOE-84" edge="1">
          <mxGeometry relative="1" as="geometry">
            <Array as="points">
              <mxPoint x="1340" y="870" />
              <mxPoint x="1340" y="460" />
              <mxPoint x="340" y="460" />
            </Array>
          </mxGeometry>
        </mxCell>
        <mxCell id="UJFcI3xOjRwTeI_TndEH-21" style="edgeStyle=orthogonalEdgeStyle;rounded=0;orthogonalLoop=1;jettySize=auto;html=1;entryX=0.5;entryY=0;entryDx=0;entryDy=0;" parent="1" source="SXCyoP0QDoGg-8MIkyOE-87" target="SXCyoP0QDoGg-8MIkyOE-9" edge="1">
          <mxGeometry relative="1" as="geometry" />
        </mxCell>
        <mxCell id="UJFcI3xOjRwTeI_TndEH-80" style="edgeStyle=orthogonalEdgeStyle;rounded=0;orthogonalLoop=1;jettySize=auto;html=1;" parent="1" source="SXCyoP0QDoGg-8MIkyOE-87" edge="1">
          <mxGeometry relative="1" as="geometry">
            <mxPoint x="360" y="460" as="targetPoint" />
            <Array as="points">
              <mxPoint x="1340" y="870" />
              <mxPoint x="1340" y="460" />
            </Array>
          </mxGeometry>
        </mxCell>
        <mxCell id="SXCyoP0QDoGg-8MIkyOE-87" value="Cas" style="rounded=1;whiteSpace=wrap;html=1;fontFamily=Consolas;fillStyle=auto;strokeColor=default;align=center;verticalAlign=middle;fontSize=19;fontColor=default;fillColor=none;gradientColor=none;gradientDirection=south;" parent="1" vertex="1">
          <mxGeometry x="1120.06" y="840" width="120" height="60" as="geometry" />
        </mxCell>
        <mxCell id="SXCyoP0QDoGg-8MIkyOE-130" value="&lt;h1 style=&quot;font-size: 30px;&quot;&gt;&lt;font style=&quot;font-size: 30px;&quot;&gt;Vlastní odpočet&lt;/font&gt;&lt;/h1&gt;&lt;span style=&quot;text-align: center; font-size: 20px;&quot;&gt;&lt;font style=&quot;font-size: 20px;&quot;&gt;Nastavení odpočtu s přesností sekund. Maximální hodnota je 99h 59min 59s.&lt;/font&gt;&lt;/span&gt;&lt;div&gt;&lt;span style=&quot;text-align: center; font-size: 20px;&quot;&gt;&lt;font style=&quot;font-size: 20px;&quot;&gt;Žluté tlačítko posouvá kurzor vlevo.&lt;/font&gt;&lt;/span&gt;&lt;/div&gt;&lt;div&gt;&lt;span style=&quot;text-align: center; font-size: 20px;&quot;&gt;&lt;font style=&quot;font-size: 20px;&quot;&gt;Modré tlačítko přidá 1 k vybrané pozici.&lt;/font&gt;&lt;/span&gt;&lt;/div&gt;&lt;div&gt;&lt;font style=&quot;font-size: 20px;&quot;&gt;&lt;span style=&quot;text-align: center;&quot;&gt;Zelené tlačítko odpočet zpustí.&lt;/span&gt;&lt;/font&gt;&lt;/div&gt;" style="text;html=1;strokeColor=none;fillColor=none;spacing=5;spacingTop=-20;whiteSpace=wrap;overflow=hidden;rounded=0;fontFamily=Consolas;" parent="1" vertex="1">
          <mxGeometry x="1710" y="1073" width="359.94" height="267" as="geometry" />
        </mxCell>
        <mxCell id="UJFcI3xOjRwTeI_TndEH-1" style="edgeStyle=orthogonalEdgeStyle;rounded=0;orthogonalLoop=1;jettySize=auto;html=1;entryX=0.5;entryY=0;entryDx=0;entryDy=0;exitX=0.5;exitY=1;exitDx=0;exitDy=0;" parent="1" source="SXCyoP0QDoGg-8MIkyOE-16" target="SXCyoP0QDoGg-8MIkyOE-17" edge="1">
          <mxGeometry relative="1" as="geometry">
            <mxPoint x="420.0899999999999" y="710" as="sourcePoint" />
            <mxPoint x="520.0899999999999" y="800" as="targetPoint" />
            <Array as="points" />
          </mxGeometry>
        </mxCell>
        <mxCell id="UJFcI3xOjRwTeI_TndEH-7" style="edgeStyle=orthogonalEdgeStyle;rounded=0;orthogonalLoop=1;jettySize=auto;html=1;entryX=0.5;entryY=0;entryDx=0;entryDy=0;exitX=0.5;exitY=0;exitDx=0;exitDy=0;" parent="1" source="UJFcI3xOjRwTeI_TndEH-5" target="SXCyoP0QDoGg-8MIkyOE-17" edge="1">
          <mxGeometry relative="1" as="geometry">
            <mxPoint x="980.0599999999997" y="800" as="sourcePoint" />
            <Array as="points">
              <mxPoint x="980.06" y="780" />
              <mxPoint x="340.05999999999995" y="780" />
            </Array>
          </mxGeometry>
        </mxCell>
        <mxCell id="UJFcI3xOjRwTeI_TndEH-5" value="&lt;div style=&quot;&quot;&gt;&lt;font style=&quot;font-size: 16px;&quot;&gt;MESIT Stredni Skola&lt;/font&gt;&lt;br style=&quot;font-size: 19px;&quot;&gt;&lt;/div&gt;" style="rounded=1;whiteSpace=wrap;html=1;fontFamily=Consolas;strokeColor=default;align=center;verticalAlign=middle;fontSize=19;fontColor=default;fillColor=none;fillStyle=auto;gradientColor=none;gradientDirection=south;" parent="1" vertex="1">
          <mxGeometry x="920.0899999999999" y="800" width="120" height="60" as="geometry" />
        </mxCell>
        <mxCell id="UJFcI3xOjRwTeI_TndEH-8" value="&lt;h1 style=&quot;margin-top: 0px;&quot;&gt;&lt;font style=&quot;font-size: 30px;&quot;&gt;Texty&lt;/font&gt;&lt;/h1&gt;&lt;p style=&quot;font-size: 20px;&quot;&gt;Ukazuje Text po ~30 sekund. Červené tlačítko vrátí zpět hlavní menu.&lt;/p&gt;" style="text;html=1;whiteSpace=wrap;overflow=hidden;rounded=0;" parent="1" vertex="1">
          <mxGeometry x="410" y="665" width="630" height="90" as="geometry" />
        </mxCell>
        <mxCell id="UJFcI3xOjRwTeI_TndEH-9" value="&lt;div style=&quot;font-size: 17px;&quot;&gt;Červené tlačítko&lt;/div&gt;" style="text;html=1;strokeColor=none;fillColor=none;align=center;verticalAlign=bottom;whiteSpace=wrap;rounded=0;fontFamily=Consolas;fontSize=17;fontColor=default;" parent="1" vertex="1">
          <mxGeometry x="180" y="680" width="100" height="30" as="geometry" />
        </mxCell>
        <mxCell id="UJFcI3xOjRwTeI_TndEH-10" value="&lt;div style=&quot;font-size: 17px;&quot;&gt;Červené tlačítko&lt;/div&gt;" style="text;html=1;strokeColor=none;fillColor=none;align=center;verticalAlign=bottom;whiteSpace=wrap;rounded=0;fontFamily=Consolas;fontSize=17;fontColor=default;" parent="1" vertex="1">
          <mxGeometry x="1240.06" y="840" width="99.94" height="30" as="geometry" />
        </mxCell>
        <mxCell id="UJFcI3xOjRwTeI_TndEH-11" value="&lt;div style=&quot;font-size: 18px;&quot;&gt;Zelené tlačítko&lt;/div&gt;" style="text;html=1;strokeColor=none;fillColor=none;align=center;verticalAlign=bottom;whiteSpace=wrap;rounded=0;fontFamily=Consolas;fontSize=17;horizontal=1;fontColor=default;" parent="1" vertex="1">
          <mxGeometry x="340.06" y="480" width="99.94" height="30" as="geometry" />
        </mxCell>
        <mxCell id="UJFcI3xOjRwTeI_TndEH-13" value="&lt;div&gt;Zelené tlačítko&lt;/div&gt;" style="text;html=1;strokeColor=none;fillColor=none;align=center;verticalAlign=bottom;whiteSpace=wrap;rounded=0;fontFamily=Consolas;fontSize=17;fontColor=default;" parent="1" vertex="1">
          <mxGeometry x="349.99999999999994" y="640" width="60" height="30" as="geometry" />
        </mxCell>
        <mxCell id="UJFcI3xOjRwTeI_TndEH-14" value="&lt;div&gt;Žluté tlačítko&lt;/div&gt;" style="text;html=1;strokeColor=none;fillColor=none;align=center;verticalAlign=bottom;whiteSpace=wrap;rounded=0;fontFamily=Consolas;fontSize=17;fontColor=default;" parent="1" vertex="1">
          <mxGeometry x="400" y="590" width="60" height="30" as="geometry" />
        </mxCell>
        <mxCell id="UJFcI3xOjRwTeI_TndEH-17" value="&lt;div&gt;Zelené tlačítko&lt;/div&gt;" style="text;html=1;strokeColor=none;fillColor=none;align=center;verticalAlign=bottom;whiteSpace=wrap;rounded=0;fontFamily=Consolas;fontSize=17;fontColor=default;" parent="1" vertex="1">
          <mxGeometry x="1190.06" y="960" width="60" height="30" as="geometry" />
        </mxCell>
        <mxCell id="UJFcI3xOjRwTeI_TndEH-63" style="edgeStyle=orthogonalEdgeStyle;rounded=0;orthogonalLoop=1;jettySize=auto;html=1;entryX=0.5;entryY=0;entryDx=0;entryDy=0;" parent="1" source="UJFcI3xOjRwTeI_TndEH-18" target="UJFcI3xOjRwTeI_TndEH-60" edge="1">
          <mxGeometry relative="1" as="geometry">
            <Array as="points">
              <mxPoint x="1700" y="1030" />
              <mxPoint x="1700" y="1220" />
              <mxPoint x="700" y="1220" />
              <mxPoint x="700" y="1000" />
              <mxPoint x="340" y="1000" />
            </Array>
          </mxGeometry>
        </mxCell>
        <mxCell id="UJFcI3xOjRwTeI_TndEH-18" value="(Custom countdown)" style="rounded=1;whiteSpace=wrap;html=1;fontFamily=Consolas;fillStyle=auto;strokeColor=default;align=center;verticalAlign=middle;fontSize=19;fontColor=default;fillColor=none;gradientColor=none;gradientDirection=south;" parent="1" vertex="1">
          <mxGeometry x="1800" y="998" width="120" height="60" as="geometry" />
        </mxCell>
        <mxCell id="UJFcI3xOjRwTeI_TndEH-19" value="&lt;div&gt;Žluté tlačítko&lt;/div&gt;" style="text;html=1;strokeColor=none;fillColor=none;align=center;verticalAlign=bottom;whiteSpace=wrap;rounded=0;fontFamily=Consolas;fontSize=17;fontColor=default;" parent="1" vertex="1">
          <mxGeometry x="1870" y="960" width="60" height="30" as="geometry" />
        </mxCell>
        <mxCell id="UJFcI3xOjRwTeI_TndEH-22" style="edgeStyle=orthogonalEdgeStyle;rounded=0;orthogonalLoop=1;jettySize=auto;html=1;entryX=0.5;entryY=0;entryDx=0;entryDy=0;" parent="1" source="SXCyoP0QDoGg-8MIkyOE-87" target="UJFcI3xOjRwTeI_TndEH-18" edge="1">
          <mxGeometry relative="1" as="geometry">
            <Array as="points">
              <mxPoint x="1180" y="940" />
              <mxPoint x="1860" y="940" />
            </Array>
          </mxGeometry>
        </mxCell>
        <mxCell id="UJFcI3xOjRwTeI_TndEH-48" style="edgeStyle=orthogonalEdgeStyle;rounded=0;orthogonalLoop=1;jettySize=auto;html=1;entryX=0;entryY=0.5;entryDx=0;entryDy=0;" parent="1" source="UJFcI3xOjRwTeI_TndEH-24" target="UJFcI3xOjRwTeI_TndEH-25" edge="1">
          <mxGeometry relative="1" as="geometry" />
        </mxCell>
        <mxCell id="UJFcI3xOjRwTeI_TndEH-24" value="20min." style="rounded=1;whiteSpace=wrap;html=1;fontFamily=Consolas;fillStyle=auto;strokeColor=default;align=center;verticalAlign=middle;fontSize=19;fontColor=default;fillColor=none;gradientColor=none;gradientDirection=south;" parent="1" vertex="1">
          <mxGeometry x="1120.06" y="1120" width="120" height="60" as="geometry" />
        </mxCell>
        <mxCell id="UJFcI3xOjRwTeI_TndEH-49" style="edgeStyle=orthogonalEdgeStyle;rounded=0;orthogonalLoop=1;jettySize=auto;html=1;entryX=0;entryY=0.5;entryDx=0;entryDy=0;" parent="1" source="UJFcI3xOjRwTeI_TndEH-25" target="UJFcI3xOjRwTeI_TndEH-26" edge="1">
          <mxGeometry relative="1" as="geometry" />
        </mxCell>
        <mxCell id="UJFcI3xOjRwTeI_TndEH-25" value="30min." style="rounded=1;whiteSpace=wrap;html=1;fontFamily=Consolas;fillStyle=auto;strokeColor=default;align=center;verticalAlign=middle;fontSize=19;fontColor=default;fillColor=none;gradientColor=none;gradientDirection=south;" parent="1" vertex="1">
          <mxGeometry x="1320.06" y="1120" width="120" height="60" as="geometry" />
        </mxCell>
        <mxCell id="UJFcI3xOjRwTeI_TndEH-47" style="edgeStyle=orthogonalEdgeStyle;rounded=0;orthogonalLoop=1;jettySize=auto;html=1;entryX=0.5;entryY=0;entryDx=0;entryDy=0;exitX=0.5;exitY=0;exitDx=0;exitDy=0;" parent="1" source="UJFcI3xOjRwTeI_TndEH-26" target="UJFcI3xOjRwTeI_TndEH-24" edge="1">
          <mxGeometry relative="1" as="geometry">
            <Array as="points">
              <mxPoint x="1580.06" y="1100" />
              <mxPoint x="1180.06" y="1100" />
            </Array>
          </mxGeometry>
        </mxCell>
        <mxCell id="UJFcI3xOjRwTeI_TndEH-26" value="1h 30min." style="rounded=1;whiteSpace=wrap;html=1;fontFamily=Consolas;fillStyle=auto;strokeColor=default;align=center;verticalAlign=middle;fontSize=19;fontColor=default;fillColor=none;gradientColor=none;gradientDirection=south;" parent="1" vertex="1">
          <mxGeometry x="1520.06" y="1120" width="120" height="60" as="geometry" />
        </mxCell>
        <mxCell id="UJFcI3xOjRwTeI_TndEH-50" value="&lt;div&gt;Žluté tlačítko&lt;/div&gt;" style="text;html=1;strokeColor=none;fillColor=none;align=center;verticalAlign=bottom;whiteSpace=wrap;rounded=0;fontFamily=Consolas;fontSize=17;fontColor=default;" parent="1" vertex="1">
          <mxGeometry x="1250.06" y="1120" width="60" height="30" as="geometry" />
        </mxCell>
        <mxCell id="UJFcI3xOjRwTeI_TndEH-51" value="&lt;div&gt;Žluté tlačítko&lt;/div&gt;" style="text;html=1;strokeColor=none;fillColor=none;align=center;verticalAlign=bottom;whiteSpace=wrap;rounded=0;fontFamily=Consolas;fontSize=17;fontColor=default;" parent="1" vertex="1">
          <mxGeometry x="1450" y="1120" width="60" height="30" as="geometry" />
        </mxCell>
        <mxCell id="UJFcI3xOjRwTeI_TndEH-52" value="&lt;div&gt;Žluté tlačítko&lt;/div&gt;" style="text;html=1;strokeColor=none;fillColor=none;align=center;verticalAlign=bottom;whiteSpace=wrap;rounded=0;fontFamily=Consolas;fontSize=17;fontColor=default;" parent="1" vertex="1">
          <mxGeometry x="1590" y="1090" width="60" height="30" as="geometry" />
        </mxCell>
        <mxCell id="UJFcI3xOjRwTeI_TndEH-55" value="&lt;div&gt;Červené tlačítko&lt;/div&gt;" style="text;html=1;strokeColor=none;fillColor=none;align=center;verticalAlign=bottom;whiteSpace=wrap;rounded=0;fontFamily=Consolas;fontSize=17;fontColor=default;" parent="1" vertex="1">
          <mxGeometry x="1030" y="1000" width="90.06" height="30" as="geometry" />
        </mxCell>
        <mxCell id="UJFcI3xOjRwTeI_TndEH-58" value="&lt;h1&gt;&lt;font style=&quot;font-size: 30px;&quot;&gt;Předdefinovaný odpočet&lt;/font&gt;&lt;/h1&gt;&lt;font style=&quot;font-size: 20px;&quot;&gt;&lt;span style=&quot;text-align: center;&quot;&gt;Jednoduchý výběr předdefinovaných odpočtů pomocí žlutého tlačítka. Zelené tlačítko odpočet zpustí.&lt;br&gt;&lt;/span&gt;&lt;/font&gt;" style="text;html=1;strokeColor=none;fillColor=none;spacing=5;spacingTop=-20;whiteSpace=wrap;overflow=hidden;rounded=0;fontFamily=Consolas;" parent="1" vertex="1">
          <mxGeometry x="1260" y="946.5" width="440" height="137" as="geometry" />
        </mxCell>
        <mxCell id="UJFcI3xOjRwTeI_TndEH-59" value="&lt;div&gt;Zelené tlačítko&lt;/div&gt;" style="text;html=1;strokeColor=none;fillColor=none;align=center;verticalAlign=bottom;whiteSpace=wrap;rounded=0;fontFamily=Consolas;fontSize=17;fontColor=default;" parent="1" vertex="1">
          <mxGeometry x="1720" y="1043" width="60" height="30" as="geometry" />
        </mxCell>
        <mxCell id="UJFcI3xOjRwTeI_TndEH-73" style="edgeStyle=orthogonalEdgeStyle;rounded=0;orthogonalLoop=1;jettySize=auto;html=1;entryX=0;entryY=0.5;entryDx=0;entryDy=0;" parent="1" source="UJFcI3xOjRwTeI_TndEH-60" target="UJFcI3xOjRwTeI_TndEH-68" edge="1">
          <mxGeometry relative="1" as="geometry" />
        </mxCell>
        <mxCell id="UJFcI3xOjRwTeI_TndEH-75" style="edgeStyle=orthogonalEdgeStyle;rounded=0;orthogonalLoop=1;jettySize=auto;html=1;" parent="1" source="UJFcI3xOjRwTeI_TndEH-60" target="UJFcI3xOjRwTeI_TndEH-74" edge="1">
          <mxGeometry relative="1" as="geometry">
            <Array as="points">
              <mxPoint x="340" y="1130" />
              <mxPoint x="340" y="1130" />
            </Array>
          </mxGeometry>
        </mxCell>
        <mxCell id="UJFcI3xOjRwTeI_TndEH-60" value="Odpočet odpočítává" style="rounded=1;whiteSpace=wrap;html=1;fontFamily=Consolas;fillStyle=auto;strokeColor=default;align=center;verticalAlign=middle;fontSize=19;fontColor=default;fillColor=none;gradientColor=none;gradientDirection=south;" parent="1" vertex="1">
          <mxGeometry x="280.0899999999999" y="1043" width="120" height="60" as="geometry" />
        </mxCell>
        <mxCell id="UJFcI3xOjRwTeI_TndEH-62" value="&lt;div&gt;Zelené tlačítko&lt;/div&gt;" style="text;html=1;strokeColor=none;fillColor=none;align=center;verticalAlign=bottom;whiteSpace=wrap;rounded=0;fontFamily=Consolas;fontSize=17;fontColor=default;" parent="1" vertex="1">
          <mxGeometry x="1020" y="1053.5" width="100.06" height="30" as="geometry" />
        </mxCell>
        <mxCell id="UJFcI3xOjRwTeI_TndEH-69" style="edgeStyle=orthogonalEdgeStyle;rounded=0;orthogonalLoop=1;jettySize=auto;html=1;entryX=0.5;entryY=0;entryDx=0;entryDy=0;" parent="1" source="UJFcI3xOjRwTeI_TndEH-68" target="UJFcI3xOjRwTeI_TndEH-60" edge="1">
          <mxGeometry relative="1" as="geometry">
            <Array as="points">
              <mxPoint x="570" y="1020" />
              <mxPoint x="340" y="1020" />
            </Array>
          </mxGeometry>
        </mxCell>
        <mxCell id="UJFcI3xOjRwTeI_TndEH-68" value="Odpočet zastaven" style="rounded=1;whiteSpace=wrap;html=1;fontFamily=Consolas;fillStyle=auto;strokeColor=default;align=center;verticalAlign=middle;fontSize=19;fontColor=default;fillColor=none;gradientColor=none;gradientDirection=south;" parent="1" vertex="1">
          <mxGeometry x="519.9999999999999" y="1043" width="120" height="60" as="geometry" />
        </mxCell>
        <mxCell id="UJFcI3xOjRwTeI_TndEH-70" value="&lt;div&gt;Zelené tlačítko&lt;/div&gt;" style="text;html=1;strokeColor=none;fillColor=none;align=center;verticalAlign=bottom;whiteSpace=wrap;rounded=0;fontFamily=Consolas;fontSize=17;fontColor=default;" parent="1" vertex="1">
          <mxGeometry x="570" y="1013" width="110" height="30" as="geometry" />
        </mxCell>
        <mxCell id="UJFcI3xOjRwTeI_TndEH-71" value="&lt;div&gt;Žluté tlačítko&lt;/div&gt;" style="text;html=1;strokeColor=none;fillColor=none;align=center;verticalAlign=bottom;whiteSpace=wrap;rounded=0;fontFamily=Consolas;fontSize=17;fontColor=default;" parent="1" vertex="1">
          <mxGeometry x="400" y="1043" width="100" height="30" as="geometry" />
        </mxCell>
        <mxCell id="UJFcI3xOjRwTeI_TndEH-77" style="edgeStyle=orthogonalEdgeStyle;rounded=0;orthogonalLoop=1;jettySize=auto;html=1;entryX=0;entryY=0.5;entryDx=0;entryDy=0;" parent="1" source="UJFcI3xOjRwTeI_TndEH-74" target="SXCyoP0QDoGg-8MIkyOE-87" edge="1">
          <mxGeometry relative="1" as="geometry">
            <Array as="points">
              <mxPoint x="180" y="1193" />
              <mxPoint x="180" y="960" />
              <mxPoint x="1030" y="960" />
              <mxPoint x="1030" y="870" />
            </Array>
          </mxGeometry>
        </mxCell>
        <mxCell id="KQ1zQFUVo21e3utHD2PA-2" style="edgeStyle=orthogonalEdgeStyle;rounded=0;orthogonalLoop=1;jettySize=auto;html=1;" parent="1" source="UJFcI3xOjRwTeI_TndEH-74" edge="1">
          <mxGeometry relative="1" as="geometry">
            <mxPoint x="1010" y="960" as="targetPoint" />
            <Array as="points">
              <mxPoint x="180" y="1193" />
              <mxPoint x="180" y="960" />
            </Array>
          </mxGeometry>
        </mxCell>
        <mxCell id="UJFcI3xOjRwTeI_TndEH-74" value="Odpočet zkončil" style="rounded=1;whiteSpace=wrap;html=1;fontFamily=Consolas;fillStyle=auto;strokeColor=default;align=center;verticalAlign=middle;fontSize=19;fontColor=default;fillColor=none;gradientColor=none;gradientDirection=south;" parent="1" vertex="1">
          <mxGeometry x="280.0899999999999" y="1163" width="120" height="60" as="geometry" />
        </mxCell>
        <mxCell id="UJFcI3xOjRwTeI_TndEH-78" value="&lt;div&gt;Jakékoliv tlačítko&lt;/div&gt;" style="text;html=1;strokeColor=none;fillColor=none;align=center;verticalAlign=bottom;whiteSpace=wrap;rounded=0;fontFamily=Consolas;fontSize=17;fontColor=default;" parent="1" vertex="1">
          <mxGeometry x="180" y="1163" width="100.09" height="30" as="geometry" />
        </mxCell>
        <mxCell id="KQ1zQFUVo21e3utHD2PA-1" value="&lt;font style=&quot;font-size: 80px;&quot;&gt;Menu SCRACK Panelu&lt;/font&gt;" style="text;html=1;align=center;verticalAlign=middle;whiteSpace=wrap;rounded=0;" parent="1" vertex="1">
          <mxGeometry x="576" y="40" width="1184" height="160" as="geometry" />
        </mxCell>
      </root>
    </mxGraphModel>
  </diagram>
</mxfile>
